<mxfile host="app.diagrams.net" modified="2023-08-24T00:04:09.548Z" agent="Mozilla/5.0 (Windows NT 10.0; Win64; x64) AppleWebKit/537.36 (KHTML, like Gecko) Chrome/115.0.0.0 Safari/537.36 OPR/101.0.0.0 (Edition std-1)" etag="NQ41vf1OU6POT9n0D2Km" version="21.6.9" type="github">
  <diagram name="PÃ¡gina-1" id="U8Jf3Sy99X29qMIp24CP">
    <mxGraphModel dx="1009" dy="542" grid="1" gridSize="10" guides="1" tooltips="1" connect="1" arrows="1" fold="1" page="1" pageScale="1" pageWidth="827" pageHeight="1169" math="0" shadow="0">
      <root>
        <mxCell id="0" />
        <mxCell id="1" parent="0" />
        <mxCell id="IuPjewZ0ek91UxGCV6GJ-1" value="Pessoa" style="swimlane;fontStyle=1;align=center;verticalAlign=top;childLayout=stackLayout;horizontal=1;startSize=26;horizontalStack=0;resizeParent=1;resizeParentMax=0;resizeLast=0;collapsible=1;marginBottom=0;whiteSpace=wrap;html=1;" vertex="1" parent="1">
          <mxGeometry x="40" y="40" width="240" height="218" as="geometry" />
        </mxCell>
        <mxCell id="IuPjewZ0ek91UxGCV6GJ-2" value="- codigo: int&lt;br&gt;-nome: string&lt;br&gt;- endereco: string&lt;br&gt;- telefone: string&lt;br&gt;- datanascimento: data&lt;br&gt;- rg: string&lt;br&gt;- cpf: string&lt;br&gt;-datainsercao: data" style="text;strokeColor=none;fillColor=none;align=left;verticalAlign=top;spacingLeft=4;spacingRight=4;overflow=hidden;rotatable=0;points=[[0,0.5],[1,0.5]];portConstraint=eastwest;whiteSpace=wrap;html=1;" vertex="1" parent="IuPjewZ0ek91UxGCV6GJ-1">
          <mxGeometry y="26" width="240" height="124" as="geometry" />
        </mxCell>
        <mxCell id="IuPjewZ0ek91UxGCV6GJ-3" value="" style="line;strokeWidth=1;fillColor=none;align=left;verticalAlign=middle;spacingTop=-1;spacingLeft=3;spacingRight=3;rotatable=0;labelPosition=right;points=[];portConstraint=eastwest;strokeColor=inherit;" vertex="1" parent="IuPjewZ0ek91UxGCV6GJ-1">
          <mxGeometry y="150" width="240" height="8" as="geometry" />
        </mxCell>
        <mxCell id="IuPjewZ0ek91UxGCV6GJ-4" value="+ pessoa()&lt;br&gt;+ pessoa(int, string, string, string, data, string, string, data)" style="text;strokeColor=none;fillColor=none;align=left;verticalAlign=top;spacingLeft=4;spacingRight=4;overflow=hidden;rotatable=0;points=[[0,0.5],[1,0.5]];portConstraint=eastwest;whiteSpace=wrap;html=1;" vertex="1" parent="IuPjewZ0ek91UxGCV6GJ-1">
          <mxGeometry y="158" width="240" height="60" as="geometry" />
        </mxCell>
      </root>
    </mxGraphModel>
  </diagram>
</mxfile>
